<svg id="visual" viewBox="0 0 900 600" width="900" height="600" xmlns="http://www.w3.org/2000/svg" xmlns:xlink="http://www.w3.org/1999/xlink" version="1.1"><rect x="0" y="0" width="900" height="600" fill="#001122"></rect><g transform="translate(467.77769498691725 293.082585614781)"><path d="M73.9 -116.4C101.7 -111.8 134.4 -104.2 138.3 -84.3C142.1 -64.3 117 -32.2 101.4 -9.1C85.7 14.1 79.4 28.1 75.8 48.5C72.2 68.8 71.4 95.5 59.2 117.8C47 140.1 23.5 158 1.4 155.6C-20.7 153.1 -41.3 130.3 -73.8 119.7C-106.3 109.1 -150.6 110.8 -166.6 92.9C-182.6 75 -170.3 37.5 -158.6 6.8C-146.9 -24 -135.8 -48 -124.8 -74.6C-113.8 -101.1 -102.9 -130.2 -82.1 -138.9C-61.3 -147.6 -30.7 -135.8 -3.8 -129.1C23 -122.5 46 -121 73.9 -116.4" fill="none" stroke="#F7770F" stroke-width="6"></path></g></svg>