<svg id="visual" viewBox="0 0 960 540" width="960" height="540" xmlns="http://www.w3.org/2000/svg" xmlns:xlink="http://www.w3.org/1999/xlink" version="1.1"><rect x="0" y="0" width="960" height="540" fill="#001220"></rect><g fill="#233fdb"><circle r="13" cx="606" cy="194"></circle><circle r="6" cx="911" cy="468"></circle><circle r="8" cx="860" cy="43"></circle><circle r="8" cx="552" cy="250"></circle><circle r="6" cx="793" cy="286"></circle><circle r="9" cx="635" cy="231"></circle><circle r="6" cx="118" cy="227"></circle><circle r="9" cx="937" cy="223"></circle><circle r="9" cx="147" cy="96"></circle><circle r="7" cx="75" cy="537"></circle><circle r="5" cx="143" cy="200"></circle><circle r="8" cx="64" cy="325"></circle><circle r="5" cx="293" cy="25"></circle><circle r="6" cx="722" cy="202"></circle><circle r="11" cx="519" cy="71"></circle><circle r="5" cx="455" cy="15"></circle><circle r="11" cx="84" cy="84"></circle><circle r="7" cx="914" cy="18"></circle><circle r="9" cx="398" cy="208"></circle><circle r="11" cx="38" cy="63"></circle><circle r="7" cx="693" cy="210"></circle><circle r="10" cx="787" cy="415"></circle><circle r="7" cx="456" cy="233"></circle><circle r="8" cx="240" cy="128"></circle><circle r="8" cx="808" cy="159"></circle><circle r="11" cx="936" cy="188"></circle><circle r="5" cx="220" cy="58"></circle><circle r="11" cx="491" cy="427"></circle><circle r="8" cx="179" cy="113"></circle><circle r="8" cx="649" cy="286"></circle><circle r="7" cx="587" cy="313"></circle><circle r="5" cx="449" cy="297"></circle><circle r="6" cx="305" cy="258"></circle><circle r="5" cx="873" cy="282"></circle><circle r="11" cx="429" cy="466"></circle><circle r="10" cx="256" cy="241"></circle><circle r="10" cx="237" cy="160"></circle><circle r="11" cx="509" cy="539"></circle><circle r="8" cx="345" cy="62"></circle><circle r="8" cx="336" cy="233"></circle><circle r="7" cx="791" cy="258"></circle><circle r="8" cx="418" cy="254"></circle><circle r="11" cx="293" cy="175"></circle><circle r="6" cx="827" cy="436"></circle><circle r="6" cx="529" cy="267"></circle><circle r="5" cx="197" cy="227"></circle><circle r="10" cx="188" cy="308"></circle><circle r="8" cx="265" cy="515"></circle><circle r="5" cx="812" cy="202"></circle><circle r="5" cx="98" cy="288"></circle><circle r="10" cx="504" cy="336"></circle><circle r="7" cx="733" cy="285"></circle></g></svg>