<svg id="visual" viewBox="0 0 1920 1080" width="1920" height="1080" xmlns="http://www.w3.org/2000/svg" xmlns:xlink="http://www.w3.org/1999/xlink" version="1.1"><path d="M0 388L45.7 387.3C91.3 386.7 182.7 385.3 274.2 393.5C365.7 401.7 457.3 419.3 548.8 421C640.3 422.7 731.7 408.3 823 390.2C914.3 372 1005.7 350 1097 358.2C1188.3 366.3 1279.7 404.7 1371.2 416.8C1462.7 429 1554.3 415 1645.8 413.7C1737.3 412.3 1828.7 423.7 1874.3 429.3L1920 435L1920 0L1874.3 0C1828.7 0 1737.3 0 1645.8 0C1554.3 0 1462.7 0 1371.2 0C1279.7 0 1188.3 0 1097 0C1005.7 0 914.3 0 823 0C731.7 0 640.3 0 548.8 0C457.3 0 365.7 0 274.2 0C182.7 0 91.3 0 45.7 0L0 0Z" fill="#f2055c"></path><path d="M0 217L45.7 230C91.3 243 182.7 269 274.2 266.2C365.7 263.3 457.3 231.7 548.8 237.7C640.3 243.7 731.7 287.3 823 301.3C914.3 315.3 1005.7 299.7 1097 297C1188.3 294.3 1279.7 304.7 1371.2 306C1462.7 307.3 1554.3 299.7 1645.8 287.8C1737.3 276 1828.7 260 1874.3 252L1920 244L1920 0L1874.3 0C1828.7 0 1737.3 0 1645.8 0C1554.3 0 1462.7 0 1371.2 0C1279.7 0 1188.3 0 1097 0C1005.7 0 914.3 0 823 0C731.7 0 640.3 0 548.8 0C457.3 0 365.7 0 274.2 0C182.7 0 91.3 0 45.7 0L0 0Z" fill="#f45b82"></path><path d="M0 134L45.7 138.7C91.3 143.3 182.7 152.7 274.2 149.5C365.7 146.3 457.3 130.7 548.8 123.8C640.3 117 731.7 119 823 116.2C914.3 113.3 1005.7 105.7 1097 112.3C1188.3 119 1279.7 140 1371.2 148.2C1462.7 156.3 1554.3 151.7 1645.8 140.3C1737.3 129 1828.7 111 1874.3 102L1920 93L1920 0L1874.3 0C1828.7 0 1737.3 0 1645.8 0C1554.3 0 1462.7 0 1371.2 0C1279.7 0 1188.3 0 1097 0C1005.7 0 914.3 0 823 0C731.7 0 640.3 0 548.8 0C457.3 0 365.7 0 274.2 0C182.7 0 91.3 0 45.7 0L0 0Z" fill="#f288a4"></path></svg>