<svg id="visual" viewBox="0 0 900 600" width="900" height="600" xmlns="http://www.w3.org/2000/svg" xmlns:xlink="http://www.w3.org/1999/xlink" version="1.1"><rect x="0" y="0" width="900" height="600" fill="#001220"></rect><path d="M0 410L21.5 402.2C43 394.3 86 378.7 128.8 376.8C171.7 375 214.3 387 257.2 387.3C300 387.7 343 376.3 385.8 382.3C428.7 388.3 471.3 411.7 514.2 409.2C557 406.7 600 378.3 642.8 368.2C685.7 358 728.3 366 771.2 375C814 384 857 394 878.5 399L900 404L900 601L878.5 601C857 601 814 601 771.2 601C728.3 601 685.7 601 642.8 601C600 601 557 601 514.2 601C471.3 601 428.7 601 385.8 601C343 601 300 601 257.2 601C214.3 601 171.7 601 128.8 601C86 601 43 601 21.5 601L0 601Z" fill="#fa7268"></path><path d="M0 406L21.5 417.8C43 429.7 86 453.3 128.8 451.7C171.7 450 214.3 423 257.2 412.8C300 402.7 343 409.3 385.8 413.2C428.7 417 471.3 418 514.2 420.3C557 422.7 600 426.3 642.8 424.2C685.7 422 728.3 414 771.2 413.8C814 413.7 857 421.3 878.5 425.2L900 429L900 601L878.5 601C857 601 814 601 771.2 601C728.3 601 685.7 601 642.8 601C600 601 557 601 514.2 601C471.3 601 428.7 601 385.8 601C343 601 300 601 257.2 601C214.3 601 171.7 601 128.8 601C86 601 43 601 21.5 601L0 601Z" fill="#ef5f67"></path><path d="M0 509L21.5 504.7C43 500.3 86 491.7 128.8 488C171.7 484.3 214.3 485.7 257.2 485.3C300 485 343 483 385.8 475C428.7 467 471.3 453 514.2 455C557 457 600 475 642.8 479C685.7 483 728.3 473 771.2 474.7C814 476.3 857 489.7 878.5 496.3L900 503L900 601L878.5 601C857 601 814 601 771.2 601C728.3 601 685.7 601 642.8 601C600 601 557 601 514.2 601C471.3 601 428.7 601 385.8 601C343 601 300 601 257.2 601C214.3 601 171.7 601 128.8 601C86 601 43 601 21.5 601L0 601Z" fill="#e34c67"></path><path d="M0 523L21.5 523.7C43 524.3 86 525.7 128.8 520.8C171.7 516 214.3 505 257.2 504C300 503 343 512 385.8 518C428.7 524 471.3 527 514.2 520.3C557 513.7 600 497.3 642.8 491.5C685.7 485.7 728.3 490.3 771.2 496.5C814 502.7 857 510.3 878.5 514.2L900 518L900 601L878.5 601C857 601 814 601 771.2 601C728.3 601 685.7 601 642.8 601C600 601 557 601 514.2 601C471.3 601 428.7 601 385.8 601C343 601 300 601 257.2 601C214.3 601 171.7 601 128.8 601C86 601 43 601 21.5 601L0 601Z" fill="#d53867"></path><path d="M0 570L21.5 565.5C43 561 86 552 128.8 549C171.7 546 214.3 549 257.2 547.2C300 545.3 343 538.7 385.8 539C428.7 539.3 471.3 546.7 514.2 551.8C557 557 600 560 642.8 558.3C685.7 556.7 728.3 550.3 771.2 548.5C814 546.7 857 549.3 878.5 550.7L900 552L900 601L878.5 601C857 601 814 601 771.2 601C728.3 601 685.7 601 642.8 601C600 601 557 601 514.2 601C471.3 601 428.7 601 385.8 601C343 601 300 601 257.2 601C214.3 601 171.7 601 128.8 601C86 601 43 601 21.5 601L0 601Z" fill="#c62368"></path></svg>