<svg id="visual" viewBox="0 0 900 600" width="900" height="600" xmlns="http://www.w3.org/2000/svg" xmlns:xlink="http://www.w3.org/1999/xlink" version="1.1"><path d="M0 67L9.3 73C18.7 79 37.3 91 56.2 91C75 91 94 79 112.8 80C131.7 81 150.3 95 169 99C187.7 103 206.3 97 225 92C243.7 87 262.3 83 281.2 81C300 79 319 79 337.8 83C356.7 87 375.3 95 394 97C412.7 99 431.3 95 450 95C468.7 95 487.3 99 506.2 103C525 107 544 111 562.8 110C581.7 109 600.3 103 619 102C637.7 101 656.3 105 675 106C693.7 107 712.3 105 731.2 101C750 97 769 91 787.8 89C806.7 87 825.3 89 844 89C862.7 89 881.3 87 890.7 86L900 85L900 0L890.7 0C881.3 0 862.7 0 844 0C825.3 0 806.7 0 787.8 0C769 0 750 0 731.2 0C712.3 0 693.7 0 675 0C656.3 0 637.7 0 619 0C600.3 0 581.7 0 562.8 0C544 0 525 0 506.2 0C487.3 0 468.7 0 450 0C431.3 0 412.7 0 394 0C375.3 0 356.7 0 337.8 0C319 0 300 0 281.2 0C262.3 0 243.7 0 225 0C206.3 0 187.7 0 169 0C150.3 0 131.7 0 112.8 0C94 0 75 0 56.2 0C37.3 0 18.7 0 9.3 0L0 0Z" fill="#ab8686"></path><path d="M0 205L9.3 216C18.7 227 37.3 249 56.2 257C75 265 94 259 112.8 258C131.7 257 150.3 261 169 264C187.7 267 206.3 269 225 260C243.7 251 262.3 231 281.2 230C300 229 319 247 337.8 258C356.7 269 375.3 273 394 273C412.7 273 431.3 269 450 263C468.7 257 487.3 249 506.2 251C525 253 544 265 562.8 264C581.7 263 600.3 249 619 250C637.7 251 656.3 267 675 264C693.7 261 712.3 239 731.2 228C750 217 769 217 787.8 220C806.7 223 825.3 229 844 233C862.7 237 881.3 239 890.7 240L900 241L900 83L890.7 84C881.3 85 862.7 87 844 87C825.3 87 806.7 85 787.8 87C769 89 750 95 731.2 99C712.3 103 693.7 105 675 104C656.3 103 637.7 99 619 100C600.3 101 581.7 107 562.8 108C544 109 525 105 506.2 101C487.3 97 468.7 93 450 93C431.3 93 412.7 97 394 95C375.3 93 356.7 85 337.8 81C319 77 300 77 281.2 79C262.3 81 243.7 85 225 90C206.3 95 187.7 101 169 97C150.3 93 131.7 79 112.8 78C94 77 75 89 56.2 89C37.3 89 18.7 77 9.3 71L0 65Z" fill="#d0a7a7"></path><path d="M0 277L9.3 283C18.7 289 37.3 301 56.2 309C75 317 94 321 112.8 320C131.7 319 150.3 313 169 316C187.7 319 206.3 331 225 327C243.7 323 262.3 303 281.2 299C300 295 319 307 337.8 315C356.7 323 375.3 327 394 329C412.7 331 431.3 331 450 324C468.7 317 487.3 303 506.2 305C525 307 544 325 562.8 328C581.7 331 600.3 319 619 318C637.7 317 656.3 327 675 323C693.7 319 712.3 301 731.2 293C750 285 769 287 787.8 288C806.7 289 825.3 289 844 292C862.7 295 881.3 301 890.7 304L900 307L900 239L890.7 238C881.3 237 862.7 235 844 231C825.3 227 806.7 221 787.8 218C769 215 750 215 731.2 226C712.3 237 693.7 259 675 262C656.3 265 637.7 249 619 248C600.3 247 581.7 261 562.8 262C544 263 525 251 506.2 249C487.3 247 468.7 255 450 261C431.3 267 412.7 271 394 271C375.3 271 356.7 267 337.8 256C319 245 300 227 281.2 228C262.3 229 243.7 249 225 258C206.3 267 187.7 265 169 262C150.3 259 131.7 255 112.8 256C94 257 75 263 56.2 255C37.3 247 18.7 225 9.3 214L0 203Z" fill="#f7caca"></path><path d="M0 373L9.3 378C18.7 383 37.3 393 56.2 398C75 403 94 403 112.8 401C131.7 399 150.3 395 169 395C187.7 395 206.3 399 225 391C243.7 383 262.3 363 281.2 360C300 357 319 371 337.8 378C356.7 385 375.3 385 394 386C412.7 387 431.3 389 450 386C468.7 383 487.3 375 506.2 378C525 381 544 395 562.8 400C581.7 405 600.3 401 619 400C637.7 399 656.3 401 675 395C693.7 389 712.3 375 731.2 366C750 357 769 353 787.8 354C806.7 355 825.3 361 844 364C862.7 367 881.3 367 890.7 367L900 367L900 305L890.7 302C881.3 299 862.7 293 844 290C825.3 287 806.7 287 787.8 286C769 285 750 283 731.2 291C712.3 299 693.7 317 675 321C656.3 325 637.7 315 619 316C600.3 317 581.7 329 562.8 326C544 323 525 305 506.2 303C487.3 301 468.7 315 450 322C431.3 329 412.7 329 394 327C375.3 325 356.7 321 337.8 313C319 305 300 293 281.2 297C262.3 301 243.7 321 225 325C206.3 329 187.7 317 169 314C150.3 311 131.7 317 112.8 318C94 319 75 315 56.2 307C37.3 299 18.7 287 9.3 281L0 275Z" fill="#f7caca"></path><path d="M0 415L9.3 427C18.7 439 37.3 463 56.2 474C75 485 94 483 112.8 478C131.7 473 150.3 465 169 462C187.7 459 206.3 461 225 453C243.7 445 262.3 427 281.2 427C300 427 319 445 337.8 449C356.7 453 375.3 443 394 444C412.7 445 431.3 457 450 454C468.7 451 487.3 433 506.2 435C525 437 544 459 562.8 466C581.7 473 600.3 465 619 465C637.7 465 656.3 473 675 466C693.7 459 712.3 437 731.2 425C750 413 769 411 787.8 416C806.7 421 825.3 433 844 439C862.7 445 881.3 445 890.7 445L900 445L900 365L890.7 365C881.3 365 862.7 365 844 362C825.3 359 806.7 353 787.8 352C769 351 750 355 731.2 364C712.3 373 693.7 387 675 393C656.3 399 637.7 397 619 398C600.3 399 581.7 403 562.8 398C544 393 525 379 506.2 376C487.3 373 468.7 381 450 384C431.3 387 412.7 385 394 384C375.3 383 356.7 383 337.8 376C319 369 300 355 281.2 358C262.3 361 243.7 381 225 389C206.3 397 187.7 393 169 393C150.3 393 131.7 397 112.8 399C94 401 75 401 56.2 396C37.3 391 18.7 381 9.3 376L0 371Z" fill="#d0a7a7"></path><path d="M0 601L9.3 601C18.7 601 37.3 601 56.2 601C75 601 94 601 112.8 601C131.7 601 150.3 601 169 601C187.7 601 206.3 601 225 601C243.7 601 262.3 601 281.2 601C300 601 319 601 337.8 601C356.7 601 375.3 601 394 601C412.7 601 431.3 601 450 601C468.7 601 487.3 601 506.2 601C525 601 544 601 562.8 601C581.7 601 600.3 601 619 601C637.7 601 656.3 601 675 601C693.7 601 712.3 601 731.2 601C750 601 769 601 787.8 601C806.7 601 825.3 601 844 601C862.7 601 881.3 601 890.7 601L900 601L900 443L890.7 443C881.3 443 862.7 443 844 437C825.3 431 806.7 419 787.8 414C769 409 750 411 731.2 423C712.3 435 693.7 457 675 464C656.3 471 637.7 463 619 463C600.3 463 581.7 471 562.8 464C544 457 525 435 506.2 433C487.3 431 468.7 449 450 452C431.3 455 412.7 443 394 442C375.3 441 356.7 451 337.8 447C319 443 300 425 281.2 425C262.3 425 243.7 443 225 451C206.3 459 187.7 457 169 460C150.3 463 131.7 471 112.8 476C94 481 75 483 56.2 472C37.3 461 18.7 437 9.3 425L0 413Z" fill="#ab8686"></path></svg>